<?xml version="1.0" encoding="utf-8"?>
<!-- Generator: Adobe Illustrator 24.2.0, SVG Export Plug-In . SVG Version: 6.00 Build 0)  -->
<svg version="1.1" id="레이어_1" xmlns="http://www.w3.org/2000/svg" xmlns:xlink="http://www.w3.org/1999/xlink" x="0px"
	 y="0px" viewBox="0 0 500 297.21" style="enable-background:new 0 0 500 297.21;" xml:space="preserve">
<style type="text/css">
	.st0{fill-rule:evenodd;clip-rule:evenodd;}
</style>
<g>
	<path class="st0" d="M217.9,27.06v9.05c0,9.5,0.05,15.7,0.16,18.58c0.1,2.46,0.52,4.36,1.28,5.69c0.47,0.81,1.34,1.66,2.56,2.56
		h-19.54c0.85-0.96,1.79-1.83,2.56-2.8c1.1-1.38,1.51-3.29,1.6-5.53c0.12-3.26,0.24-9.37,0.24-18.34v-9.45
		c0-6.99-0.08-11.32-0.24-12.97l-4.32-0.16c-1.82-0.07-3.53,0.53-5.13,1.76c-1.17,0.91-2,1.92-2.48,3.04c0-0.8,0.26-1.94,0.72-3.44
		c0.66-2.13,1.04-3.63,1.2-4.49c0.21-0.43,0.61-1.79,1.2-4.08c1.23-0.05,3.31-0.02,6.24,0c3.42,0.03,5.98,0,7.69,0
		c6.57,0,11.4-0.16,14.49-0.48c0,0.48,0.5,2.34,1.52,5.57c0.58,1.83,1.25,4.14,2,6.92c-1.28-1.55-2.24-2.56-2.88-3.04
		c-1.71-1.28-3.61-1.86-5.69-1.76l-3.28,0.16c0,1.01-0.02,2.8,0,5.37C217.85,22.79,217.9,25.4,217.9,27.06L217.9,27.06z
		 M267.87,25.62v15.22c0,13.18,0.48,20.58,1.44,22.18h-13.13c0.85-2.51,1.28-5.68,1.28-9.53V33.47h-12.49l-0.08,18.42
		c-0.02,5.34,0.4,9.05,1.2,11.13h-12.89c0.91-2.46,1.36-5.39,1.36-8.81V25.78c0-6.57-0.08-10.67-0.16-12.33
		c-0.13-2.62-0.51-4.91-1.2-6.89h12.73c-0.64,2.24-0.96,5.18-0.96,8.81V26.1h12.49c0.05-5.07,0.05-9.13,0-12.17
		c-0.05-2.83-0.4-5.28-1.04-7.37h13.05c-0.27,0.54-0.79,1.79-1.12,3.85C267.88,13.37,267.87,18.47,267.87,25.62L267.87,25.62z
		 M288.29,34.91l-0.16,16.26c-0.03,3.36,0.01,5.26,0.08,5.69c0.14,0.91,0.69,1.36,1.6,1.36c0.32,0,1.01-0.09,2.08-0.24
		c3.47-0.49,5.72-0.92,6.73-1.36c1.34-0.58,3.15-2.06,5.44-4.41c-0.32,2.46-0.88,6.04-1.68,10.73h-12.09c0.06,0-2.48,0.03-7.61,0
		c-3.09-0.02-5.66-0.05-7.69,0c0.43-1.07,0.67-1.82,0.8-2.24c0.24-0.81,0.42-1.84,0.48-3.12c0.15-2.88,0.24-8.33,0.24-16.34V26.98
		c0-4,0.01-7.95-0.08-11.85c-0.06-2.67-0.27-4.54-0.48-5.61c-0.11-0.58-0.48-1.55-1.12-2.88c0.96-0.05,2.48-0.05,4.56,0h22.98
		c0.05,0.05-0.07,1.41-0.4,4.08c-0.36,2.88-0.56,4.32-0.56,4.32c-0.69-1.07-1.25-1.7-1.68-1.88c-0.43-0.19-1.41-0.34-2.96-0.44
		c-2.51-0.17-5.36-0.19-8.57-0.08v15.54h3.84c2.46,0,4-0.08,4.64-0.16c1.01-0.13,2-0.45,2.96-1.04v9.21
		c-1.07-0.85-3.04-1.28-5.93-1.28H288.29z M7.16,188.1v-46.55c0-18.46-0.09-31.75-0.25-39.87c-0.17-8.12-0.92-14.57-2.25-19.35
		c-1.11-3.23-2.28-6.45-3.5-9.68h44.71c9.9,0,17.07,1.06,21.52,3.17c6.79,3.33,11.79,10.12,15.02,20.35c2,6.45,3,13.57,3,21.36
		c0,14.35-2.95,25.47-8.84,33.37c-3.67,4.89-7.9,7.95-12.68,9.17c4.56,1.11,7.79,2.11,9.68,3.01c3.89,1.78,7.12,4.33,9.68,7.67
		c6.23,8.01,9.34,19.63,9.34,34.87c0,21.24-5.45,36.03-16.35,44.38c-6.79,5.34-15.35,7.9-25.69,7.67
		c-12.46-0.22-28.03-0.5-46.71-0.83H2.15h0.5h-3.33c4.45-4,6.89-9.46,7.34-16.35C6.99,231.7,7.16,214.24,7.16,188.1L7.16,188.1z
		 M34.52,85.83v60.89c2.78,1.34,5.89,2,9.34,2c3.89,0,7.4-2.34,10.51-7.01c3.67-5.34,5.51-12.23,5.51-20.69
		c0-10.12-1.17-18.46-3.5-25.03c-2.78-7.9-6.89-11.68-12.34-11.34C41.69,84.89,38.52,85.28,34.52,85.83L34.52,85.83z M34.68,167.25
		v65.4c0,5.12,0.89,8.65,2.67,10.6c1.78,1.94,5.06,2.81,9.84,2.59c12.68-0.45,19.02-14.24,19.02-41.38c0-8.56-2-16.96-6-25.19
		c-4.67-9.45-10.18-14.18-16.52-14.18C43.47,165.08,40.47,165.8,34.68,167.25L34.68,167.25z M127.77,198.78l-0.33,33.86
		c0,7.01,0.05,10.96,0.17,11.85c0.33,1.89,1.45,2.84,3.33,2.84c0.67,0,2.12-0.17,4.34-0.5c7.23-1,11.9-1.95,14.02-2.84
		c2.78-1.22,6.56-4.28,11.34-9.17c-0.67,5.11-1.84,12.57-3.51,22.35H116.1c-6.45-0.11-11.79-0.11-16.02,0
		c0.89-2.23,1.45-3.78,1.67-4.67c0.56-1.67,0.89-3.84,1-6.51c0.33-6.01,0.5-17.35,0.5-34.03v-29.7c0-8.34-0.06-16.57-0.17-24.69
		c-0.22-5.56-0.56-9.45-1-11.68c-0.22-1.22-1-3.23-2.34-6c2-0.11,5.17-0.11,9.51,0h47.88c0.11,0.11-0.16,2.95-0.83,8.51
		c-0.78,6.01-1.17,9.01-1.17,9.01c-1.45-2.23-2.61-3.53-3.5-3.92c-0.89-0.39-2.95-0.69-6.17-0.92c-5.23-0.33-11.18-0.39-17.85-0.17
		v32.36h8.01c5.12,0,8.34-0.11,9.68-0.33c2.11-0.22,4.17-0.94,6.17-2.17v19.18c-2.23-1.78-6.34-2.67-12.34-2.67H127.77z
		 M224.54,185.93l4.5,23.69c5.56,29.36,10.73,45.21,15.52,47.55h-14.18c0.33,0-2.11-0.17-7.34-0.5c-3.89-0.22-7.56-0.05-11.01,0.5
		l2.17-3.56c-0.11-3.14-0.78-10.31-2-21.47H192c-2.12,10.82-3.17,17.24-3.17,19.27c0,2.72,0.61,4.62,1.83,5.76
		c-1.11-0.11-3.28-0.11-6.51,0h-20.85c3-1.67,5.39-5.67,7.17-12.01c1.33-4.34,4.17-17.01,8.51-38.04l4.67-22.36
		c1.78-7.9,3.56-15.79,5.34-23.69c1.56-6.79,2.34-11.57,2.34-14.35c0-3.89-1.45-6.34-4.33-7.34h37.03c-4.34,1.56-6.5,4.78-6.5,9.68
		c0,2.78,0.72,7.51,2.17,14.18C222.59,176.92,224.2,184.49,224.54,185.93L224.54,185.93z M195.01,210.13h13.85l-6.67-43.04
		L195.01,210.13z M275.59,182.43v18.85c0,46.49,0.11,72.74,0.33,78.74c0.22,5.12,1.11,9.07,2.67,11.84c1,1.67,2.78,3.45,5.34,5.34
		h-42.37c1.78-2,3.56-3.95,5.34-5.84c2.11-3.01,3.23-6.84,3.33-11.51c0.34-6.79,0.5-32.86,0.5-78.24v-19.69
		c0-14.57-0.16-23.58-0.5-27.03l-9.01-0.33c-3.78-0.11-7.34,1.11-10.67,3.67c-2.45,1.89-4.17,4-5.17,6.34c0-1.56,0.5-3.73,1.5-6.51
		c1.22-3.45,2.06-6.23,2.5-8.34c0.45-1.44,1.28-4.84,2.5-10.18c2.56-0.11,6.9-0.11,13.01,0h16.02c14.79,0,25.42-0.33,31.87-1
		c0.11,2.23,1.17,6.67,3.17,13.26c1.22,3.25,2.61,7.51,4.17,12.76c-2.67-3.23-4.67-5.34-6-6.34c-3.56-2.67-7.51-3.9-11.85-3.67
		l-6.84,0.33v11.18C275.53,173.53,275.59,178.98,275.59,182.43L275.59,182.43z M330.64,180.09l-0.33,22.52v26.86
		c0,6.45,0.17,10.51,0.5,12.18c0.67,2.12,2.11,3.17,4.34,3.17c1.22,0,3.5-0.33,6.84-1c4.67-0.89,8.73-2.78,12.18-5.67
		c2-2,3.95-4,5.84-6.01c-1.23,6.12-2.61,14.46-4.17,25.03c-4-0.22-9.68-0.22-17.01,0h-33.7c1.34-2.78,2.17-5.56,2.5-8.34
		c0.78-4.78,1.17-23.47,1.17-56.05v-31.7c0-9.45-1.06-16.63-3.17-21.52h28.36c-0.56,1-1.11,2.06-1.67,3.17
		c-0.56,1.11-0.89,2.61-1,4.51C331.19,148.23,330.97,159.18,330.64,180.09L330.64,180.09z M392.53,198.78l-0.34,33.86
		c0,7.01,0.06,10.96,0.17,11.85c0.33,1.89,1.45,2.84,3.34,2.84c0.67,0,2.11-0.17,4.34-0.5c7.23-1,11.9-1.95,14.01-2.84
		c2.78-1.22,6.56-4.28,11.34-9.17c-0.67,5.11-1.83,12.57-3.5,22.35h-41.04c-6.45-0.11-11.79-0.11-16.02,0
		c0.89-2.23,1.45-3.78,1.67-4.67c0.56-1.67,0.89-3.84,1-6.51c0.34-6.01,0.5-17.35,0.5-34.03v-29.7c0-8.34-0.06-16.57-0.17-24.69
		c-0.22-5.56-0.56-9.45-1-11.68c-0.22-1.22-1-3.23-2.34-6c2-0.11,5.17-0.11,9.51,0h47.88c0.11,0.11-0.17,2.95-0.83,8.51
		c-0.78,6.01-1.17,9.01-1.17,9.01c-1.45-2.23-2.61-3.53-3.5-3.92c-0.89-0.39-2.95-0.69-6.17-0.92c-5.23-0.33-11.18-0.39-17.85-0.17
		v32.36h8.01c5.11,0,8.34-0.11,9.68-0.33c2.11-0.22,4.17-0.94,6.17-2.17v19.18c-2.22-1.78-6.34-2.67-12.34-2.67H392.53z
		 M466.1,136.88c4.45,0.11,9.01,1.25,13.68,3.42c4.67,2.17,7.51,3.25,8.51,3.25c1.45,0,2.78-0.78,4-2.34
		c-0.89,3.23-2.5,9.29-4.84,18.19c-3.89-3.67-6.06-5.67-6.51-6.01c-3.23-2.22-7.23-3.45-12.01-3.67c-3.67-0.11-6.84,1-9.51,3.34
		c-3.23,2.78-4.84,6.78-4.84,12.01c0,6.23,2.62,11.23,7.84,15.02c5.45,3.23,10.95,6.4,16.51,9.51c13.35,8.01,20.02,18.24,20.02,30.7
		c0,11.68-3.17,20.85-9.51,27.53c-6.79,7.12-16.52,10.67-29.2,10.67c-7.23,0-13.35-2.06-18.35-6.17
		c-5.56-4.56-8.68-10.68-9.34-18.35c0.11-5,1.17-8.95,3.17-11.84c1.56-2.34,3.23-3.5,5-3.5c1.11,0,1.67,0.56,1.67,1.67
		c0,0.78-0.45,1.72-1.34,2.83c-0.33,1.34-0.5,2.67-0.5,4c0,4.56,1.56,8.59,4.67,12.1c3.11,3.5,6.39,5.37,9.84,5.59
		c6.79,0.45,12.1-1.03,15.93-4.42c3.84-3.39,5.76-8.31,5.76-14.76c0-7.12-3.39-13.57-10.18-19.35c-0.11-0.11-5.84-3.61-17.18-10.51
		c-8.12-4.89-13.18-11.68-15.18-20.35c-1.33-6.12-1.05-12.01,0.83-17.68C439.86,143.39,450.2,136.44,466.1,136.88L466.1,136.88z
		 M466.1,136.88"/>
</g>
</svg>
